<?xml version="1.0" encoding="utf-8" standalone="no"?>
<!DOCTYPE svg PUBLIC "-//W3C//DTD SVG 1.1//EN" "http://www.w3.org/Graphics/SVG/1.1/DTD/svg11.dtd">
<svg version="1.1" width="850.32pt" height="850.32pt" viewBox="0 0 850.32 850.32" overflow="visible" xmlns="http://www.w3.org/2000/svg">
  <path d="M18.65388,812.943 C10.69718,812.9371 4.243872,806.4896 4.243872,798.5272 L4.243872,51.79307 C4.243872,43.83636 10.69733,37.38306 18.65388,37.38306 L119.982,37.38306 L718.8231,37.38306 C726.7798,37.38306 733.2331,43.83651 733.2331,51.79307 L733.2331,425.2028 L733.2345,425.4022 C733.2345,583.9802 791.9259,668.6884 841.1694,711.8166 C845.685,715.7861 847.2588,722.1573 845.1565,727.718 C843.0485,733.3434 837.6696,737.0664 831.6741,737.0664 L733.2331,737.0664 L733.2331,798.527 C733.2331,806.4837 726.7797,812.937 718.8231,812.937 L120.4022,812.937 L119.982,812.943 z M33.0642,66.19421 L33.0642,784.1018 L105.578,784.1018 L105.5722,66.19421 z M134.3953,425.1141 L134.3981,425.396 C134.3981,580.268 189.9487,664.3903 238.2927,708.2389 L796.7065,708.2389 C750.1467,656.1498 704.4594,568.5932 704.4131,425.4022 L704.4131,66.20924 L134.3953,66.20924 z M134.3953,601.6603 L134.3953,784.1168 L704.4131,784.1168 L704.4131,737.0664 L232.8391,737.0664 C230.7746,737.0649 228.8116,736.63 227.0363,735.8478 C225.5575,735.1964 224.2089,734.3039 223.0402,733.2204 C192.1439,706.2669 157.8981,664.5586 134.3953,601.6603 z" stroke="#000000" stroke-width="0" fill="#B9CDC9" fill-opacity="1" />
</svg>